HIERARCHY
ROOT Hips
{
  OFFSET 0.849866 78.6569 -0.536788
  CHANNELS 6 Xposition Yposition Zposition Zrotation Xrotation Yrotation
  JOINT Bip01_Pelvis
  {
    OFFSET 0 0 0
    CHANNELS 6 Xposition Yposition Zposition Zrotation Xrotation Yrotation
    JOINT BN_Tail_01
    {
      OFFSET -5.52397 -0.332285 0
      CHANNELS 6 Xposition Yposition Zposition Zrotation Xrotation Yrotation
      JOINT BN_Tail_02
      {
        OFFSET 6.48885 -2.032e-005 0
        CHANNELS 6 Xposition Yposition Zposition Zrotation Xrotation Yrotation
        JOINT BN_Tail_03
        {
          OFFSET 7.08759 1.016e-005 -0.00261112
          CHANNELS 6 Xposition Yposition Zposition Zrotation Xrotation Yrotation
          End Site
          {
            OFFSET 0 0 0
          }
        }
      }
    }
    JOINT Bip01_Spine
    {
      OFFSET 4.02227 0.398968 0
      CHANNELS 6 Xposition Yposition Zposition Zrotation Xrotation Yrotation
      JOINT BN_UpperArm_R_01
      {
        OFFSET 4.84413 -3.22857 -3.65581
        CHANNELS 6 Xposition Yposition Zposition Zrotation Xrotation Yrotation
        JOINT BN_Forearm_R_01
        {
          OFFSET 8.51614 0 0
          CHANNELS 6 Xposition Yposition Zposition Zrotation Xrotation Yrotation
          JOINT BN_hand_R_01
          {
            OFFSET 10.1924 0 0
            CHANNELS 6 Xposition Yposition Zposition Zrotation Xrotation Yrotation
            JOINT BN_Finger_R_02
            {
              OFFSET 14.5949 -1.43855 0.585079
              CHANNELS 6 Xposition Yposition Zposition Zrotation Xrotation Yrotation
              End Site
              {
                OFFSET 0 0 0
              }
            }
            JOINT BN_Finger_R_01
            {
              OFFSET 14.4623 0 0
              CHANNELS 6 Xposition Yposition Zposition Zrotation Xrotation Yrotation
              End Site
              {
                OFFSET 0 0 0
              }
            }
          }
        }
      }
      JOINT BN_UpperArm_L_01
      {
        OFFSET 4.84412 -3.22858 3.65557
        CHANNELS 6 Xposition Yposition Zposition Zrotation Xrotation Yrotation
        JOINT BN_Forearm_L_01
        {
          OFFSET 8.51611 0 0
          CHANNELS 6 Xposition Yposition Zposition Zrotation Xrotation Yrotation
          JOINT BN_hand_L_01
          {
            OFFSET 10.1924 0 0
            CHANNELS 6 Xposition Yposition Zposition Zrotation Xrotation Yrotation
            JOINT BN_Finger_L_01
            {
              OFFSET 14.4623 0 0
              CHANNELS 6 Xposition Yposition Zposition Zrotation Xrotation Yrotation
              End Site
              {
                OFFSET 0 0 0
              }
            }
            JOINT BN_Finger_L_02
            {
              OFFSET 14.5949 1.43855 0.585071
              CHANNELS 6 Xposition Yposition Zposition Zrotation Xrotation Yrotation
              End Site
              {
                OFFSET 0 0 0
              }
            }
          }
        }
      }
      JOINT Bip01_R_Thigh
      {
        OFFSET -4.03411 -0.254132 -3.45377
        CHANNELS 6 Xposition Yposition Zposition Zrotation Xrotation Yrotation
        JOINT Bip01_R_Calf
        {
          OFFSET 3.92618 0 0
          CHANNELS 6 Xposition Yposition Zposition Zrotation Xrotation Yrotation
          JOINT Bip01_R_HorseLink
          {
            OFFSET 6.12319 0 0
            CHANNELS 6 Xposition Yposition Zposition Zrotation Xrotation Yrotation
            JOINT Bip01_R_Foot
            {
              OFFSET 9.94776 0 0
              CHANNELS 6 Xposition Yposition Zposition Zrotation Xrotation Yrotation
              JOINT Bip01_R_Toe3
              {
                OFFSET 0.881252 -0.110953 0.0158496
                CHANNELS 6 Xposition Yposition Zposition Zrotation Xrotation Yrotation
                JOINT Bip01_R_Toe31
                {
                  OFFSET 2.32137 0 0
                  CHANNELS 6 Xposition Yposition Zposition Zrotation Xrotation Yrotation
                  JOINT Bip01_R_Toe32
                  {
                    OFFSET 1.63293 0 0
                    CHANNELS 6 Xposition Yposition Zposition Zrotation Xrotation Yrotation
                    JOINT Bip01_R_Toe3Nub
                    {
                      OFFSET 1.72131 0 0
                      CHANNELS 6 Xposition Yposition Zposition Zrotation Xrotation Yrotation
                      End Site
                      {
                        OFFSET 0 0 0
                      }
                    }
                  }
                }
              }
              JOINT Bip01_R_Toe2
              {
                OFFSET 0.994751 0.967285 -1.09428
                CHANNELS 6 Xposition Yposition Zposition Zrotation Xrotation Yrotation
                JOINT Bip01_R_Toe21
                {
                  OFFSET 2.20201 0 0
                  CHANNELS 6 Xposition Yposition Zposition Zrotation Xrotation Yrotation
                  JOINT Bip01_R_Toe22
                  {
                    OFFSET 1.84925 0 0
                    CHANNELS 6 Xposition Yposition Zposition Zrotation Xrotation Yrotation
                    JOINT Bip01_R_Toe2Nub
                    {
                      OFFSET 1.70976 0 0
                      CHANNELS 6 Xposition Yposition Zposition Zrotation Xrotation Yrotation
                      End Site
                      {
                        OFFSET 0 0 0
                      }
                    }
                  }
                }
              }
              JOINT Bip01_R_Toe1
              {
                OFFSET 1.3748 1.34027 -0.0712419
                CHANNELS 6 Xposition Yposition Zposition Zrotation Xrotation Yrotation
                JOINT Bip01_R_Toe11
                {
                  OFFSET 2.26122 0 0
                  CHANNELS 6 Xposition Yposition Zposition Zrotation Xrotation Yrotation
                  JOINT Bip01_R_Toe12
                  {
                    OFFSET 2.22215 0 0
                    CHANNELS 6 Xposition Yposition Zposition Zrotation Xrotation Yrotation
                    JOINT Bip01_R_Toe1Nub
                    {
                      OFFSET 1.61867 0 0
                      CHANNELS 6 Xposition Yposition Zposition Zrotation Xrotation Yrotation
                      End Site
                      {
                        OFFSET 0 0 0
                      }
                    }
                  }
                }
              }
              JOINT Bip01_R_Toe0
              {
                OFFSET 1.40695 0.687986 0.883783
                CHANNELS 6 Xposition Yposition Zposition Zrotation Xrotation Yrotation
                JOINT Bip01_R_Toe01
                {
                  OFFSET 2.26828 0 0
                  CHANNELS 6 Xposition Yposition Zposition Zrotation Xrotation Yrotation
                  JOINT Bip01_R_Toe02
                  {
                    OFFSET 2.09769 0 0
                    CHANNELS 6 Xposition Yposition Zposition Zrotation Xrotation Yrotation
                    JOINT Bip01_R_Toe0Nub
                    {
                      OFFSET 1.53753 0 0
                      CHANNELS 6 Xposition Yposition Zposition Zrotation Xrotation Yrotation
                      End Site
                      {
                        OFFSET 0 0 0
                      }
                    }
                  }
                }
              }
            }
          }
        }
      }
      JOINT Bip01_L_Thigh
      {
        OFFSET -4.03411 -0.254147 3.45377
        CHANNELS 6 Xposition Yposition Zposition Zrotation Xrotation Yrotation
        JOINT Bip01_L_Calf
        {
          OFFSET 3.92616 0 0
          CHANNELS 6 Xposition Yposition Zposition Zrotation Xrotation Yrotation
          JOINT Bip01_L_HorseLink
          {
            OFFSET 6.1232 0 0
            CHANNELS 6 Xposition Yposition Zposition Zrotation Xrotation Yrotation
            JOINT Bip01_L_Foot
            {
              OFFSET 9.94775 0 0
              CHANNELS 6 Xposition Yposition Zposition Zrotation Xrotation Yrotation
              JOINT Bip01_L_Toe3
              {
                OFFSET 0.881246 -0.110986 -0.0157582
                CHANNELS 6 Xposition Yposition Zposition Zrotation Xrotation Yrotation
                JOINT Bip01_L_Toe31
                {
                  OFFSET 2.32136 0 0
                  CHANNELS 6 Xposition Yposition Zposition Zrotation Xrotation Yrotation
                  JOINT Bip01_L_Toe32
                  {
                    OFFSET 1.63293 0 0
                    CHANNELS 6 Xposition Yposition Zposition Zrotation Xrotation Yrotation
                    JOINT Bip01_L_Toe3Nub
                    {
                      OFFSET 1.7213 0 0
                      CHANNELS 6 Xposition Yposition Zposition Zrotation Xrotation Yrotation
                      End Site
                      {
                        OFFSET 0 0 0
                      }
                    }
                  }
                }
              }
              JOINT Bip01_L_Toe2
              {
                OFFSET 0.994649 0.967162 1.09447
                CHANNELS 6 Xposition Yposition Zposition Zrotation Xrotation Yrotation
                JOINT Bip01_L_Toe21
                {
                  OFFSET 2.202 0 0
                  CHANNELS 6 Xposition Yposition Zposition Zrotation Xrotation Yrotation
                  JOINT Bip01_L_Toe22
                  {
                    OFFSET 1.84926 0 0
                    CHANNELS 6 Xposition Yposition Zposition Zrotation Xrotation Yrotation
                    JOINT Bip01_L_Toe2Nub
                    {
                      OFFSET 1.70976 0 0
                      CHANNELS 6 Xposition Yposition Zposition Zrotation Xrotation Yrotation
                      End Site
                      {
                        OFFSET 0 0 0
                      }
                    }
                  }
                }
              }
              JOINT Bip01_L_Toe1
              {
                OFFSET 1.37483 1.34021 0.0715086
                CHANNELS 6 Xposition Yposition Zposition Zrotation Xrotation Yrotation
                JOINT Bip01_L_Toe11
                {
                  OFFSET 2.26124 0 0
                  CHANNELS 6 Xposition Yposition Zposition Zrotation Xrotation Yrotation
                  JOINT Bip01_L_Toe12
                  {
                    OFFSET 2.22214 0 0
                    CHANNELS 6 Xposition Yposition Zposition Zrotation Xrotation Yrotation
                    JOINT Bip01_L_Toe1Nub
                    {
                      OFFSET 1.61867 0 0
                      CHANNELS 6 Xposition Yposition Zposition Zrotation Xrotation Yrotation
                      End Site
                      {
                        OFFSET 0 0 0
                      }
                    }
                  }
                }
              }
              JOINT Bip01_L_Toe0
              {
                OFFSET 1.40707 0.688009 -0.883564
                CHANNELS 6 Xposition Yposition Zposition Zrotation Xrotation Yrotation
                JOINT Bip01_L_Toe01
                {
                  OFFSET 2.26828 0 0
                  CHANNELS 6 Xposition Yposition Zposition Zrotation Xrotation Yrotation
                  JOINT Bip01_L_Toe02
                  {
                    OFFSET 2.0977 0 0
                    CHANNELS 6 Xposition Yposition Zposition Zrotation Xrotation Yrotation
                    JOINT Bip01_L_Toe0Nub
                    {
                      OFFSET 1.53752 0 0
                      CHANNELS 6 Xposition Yposition Zposition Zrotation Xrotation Yrotation
                      End Site
                      {
                        OFFSET 0 0 0
                      }
                    }
                  }
                }
              }
            }
          }
        }
      }
      JOINT Bip01_Spine1
      {
        OFFSET 4.90674 -0.00437896 0
        CHANNELS 6 Xposition Yposition Zposition Zrotation Xrotation Yrotation
        JOINT Bip01_Neck
        {
          OFFSET 5.56447 -1.28357 0
          CHANNELS 6 Xposition Yposition Zposition Zrotation Xrotation Yrotation
          JOINT Bip01_Neck1
          {
            OFFSET 2.79308 -0.00219964 0
            CHANNELS 6 Xposition Yposition Zposition Zrotation Xrotation Yrotation
            JOINT Bip01_Head
            {
              OFFSET 2.79272 0 0
              CHANNELS 6 Xposition Yposition Zposition Zrotation Xrotation Yrotation
              JOINT BN_Mouth_01
              {
                OFFSET 4.19089 0.0665938 0
                CHANNELS 6 Xposition Yposition Zposition Zrotation Xrotation Yrotation
                End Site
                {
                  OFFSET 0 0 0
                }
              }
              JOINT Bip01_HeadNub
              {
                OFFSET 6.95118 0 0
                CHANNELS 6 Xposition Yposition Zposition Zrotation Xrotation Yrotation
                End Site
                {
                  OFFSET 0 0 0
                }
              }
            }
          }
        }
      }
    }
  }
}
MOTION
Frames:	3
Frame Time:	0.0333333
0.849866 91.44 0 -175.247 -90 -90 0 0 0 -89.9989 6.1813 -89.9989 -5.52397 -0.332268 0 -35.3922 -0.0113068 -179.965 6.48885 7.6294e-006 0.00426974 13.1432 -2.25431e-009 -1.64435e-009 7.08758 3.8147e-006 0.0042037 21.0985 -0.0291931 -0.0230169 4.02105 0.398918 0 -4.85098 0.598181 3.40366 4.84412 -3.22853 -3.65581 -81.6726 -8.74456 35.7459 8.5161 0 -3.8147e-006 36.3246 -0.00153571 -20.2371 10.1924 -7.10544e-015 -3.8147e-006 -30.909 0.675282 -22.3418 14.5949 -1.43856 0.585081 -48.2962 -1.49342 21.2378 14.4623 -5.72206e-006 1.90735e-006 -2.99638 -0.00273978 19.865 4.84412 -3.22854 3.65557 98.3175 -8.72062 -144.236 8.51611 0 3.8147e-006 -36.3246 0.00154384 -20.2371 10.1924 3.8147e-006 1.90735e-006 30.909 -0.675284 -22.3419 14.4623 -3.81471e-006 1.90735e-006 2.99637 0.00273722 19.865 14.5949 1.43855 0.585079 48.2962 1.49342 21.2378 -3.76132 -0.773728 -3.67577 -91.1823 -2.57655 173.566 3.92616 -1.90735e-006 -9.53675e-007 -75.4755 -4.78217e-006 -1.65363e-005 6.1232 -1.42109e-014 9.53675e-007 99.2198 -2.94737e-006 -9.87028e-006 9.94774 7.62944e-006 0 -51.9021 4.7101 6.04958 0.881234 -0.110966 0.0158088 153.243 -4.55437 179.841 2.32138 3.81473e-006 0 81.3801 2.03503e-006 -8.12293e-007 1.63292 7.62952e-006 -8.88179e-016 -87.5396 -9.62981e-006 8.8938e-006 1.7213 0 0 5.30728e-007 -2.69166e-007 3.23005e-007 0.99469 0.967273 -1.09433 100.73 3.63897 27.2618 2.202 7.6295e-006 -4.76837e-007 55.5995 -1.49644e-006 5.87846e-007 1.84923 -3.81477e-006 -1.19209e-007 -35.3034 -1.43906e-005 -8.895e-006 1.70976 0 -1.33227e-015 7.15767e-007 3.18013e-007 4.60125e-007 1.37479 1.34026 -0.0713077 112.106 -1.01429 -2.49568 2.26123 1.5259e-005 2.38419e-007 31.1828 -1.24192e-005 1.0575e-005 2.22212 7.62951e-006 0 -38.5073 -3.02999e-006 -2.64849e-006 1.61866 0 -2.38419e-007 2.55437e-008 2.9589e-008 8.30071e-008 1.40697 0.68797 0.883714 102.531 -7.69387 -31.052 2.26827 7.6295e-006 9.53674e-007 26.1292 1.51287e-005 -2.97904e-006 2.09769 3.81476e-006 0 -61.0221 -1.49346e-005 8.34366e-006 1.53752 0 -9.53674e-007 -4.4712e-007 8.98731e-006 1.29545e-006 -4.17168 -0.700379 3.21918 -97.4544 7.91309 -174.151 3.92615 -7.62941e-006 -1.77636e-015 -76.5764 -3.57506e-006 -1.71752e-005 6.12318 -7.62942e-006 0 132.918 0.0027934 -0.00641178 9.94776 -1.42109e-014 -0.00107574 -17.9055 -7.51281 3.63756 0.881233 -0.110978 -0.0158851 109.134 3.24884 -176.666 2.32135 -4.76842e-007 -8.88179e-016 44.4312 -0.00792184 -0.0194202 1.63293 -3.81475e-006 -4.76837e-007 -43.5222 -0.000642701 0.0110386 1.72131 -8.88195e-016 2.38419e-007 -179.962 0.0116023 0.00102069 0.99483 0.967336 1.09416 72.5273 10.6338 -25.4691 2.20201 0.000686652 0.00056076 63.0913 -0.0166856 -0.0472159 1.84924 -0.000913634 -0.00102234 -35.3291 -0.000758721 0.0254535 1.70977 1.90738e-006 -3.8147e-006 179.962 0.0116843 -0.00118985 1.37484 1.34023 0.0710765 77.6399 -0.586411 2.65793 2.26123 -3.81474e-006 0.000860929 49.2911 8.7938e-006 5.89089e-006 2.22213 3.55276e-015 0.000980377 -38.5036 0.000319847 -0.0221099 1.61866 0 2.38419e-007 -179.962 -0.0101593 0.000269897 1.40692 0.68787 -0.883903 83.9474 -3.75321 31.6978 2.26827 0 3.81469e-006 49.9345 8.78572e-006 -3.46241e-006 2.0977 3.55277e-015 -7.10542e-015 -61.0221 -2.55965e-005 -1.55207e-005 1.53752 7.10559e-015 0 -179.961 -0.00360147 -0.00574795 4.9071 -0.00428009 -2.38419e-007 9.04795 4.95588 -2.0849 5.56426 -1.28359 -9.53674e-007 -1.92277 -6.57525 8.33693 2.79364 -0.00202179 4.44089e-016 24.6191 -3.8675 -9.68557 2.79273 7.6294e-006 1.19209e-007 28.0902 -1.35029 0.453163 4.19087 0.0665894 -2.38419e-007 -126.987 -0.0432282 -179.978 6.95116 0 4.44089e-016 9.69497e-007 9.96127e-006 -4.30302e-009 
0.966672 88.0553 -0.00676401 136.47 -90 -139.806 0 0 0 -89.9988 5.69617 -89.9989 -5.52397 -0.332268 1.04083e-017 -35.2583 -0.0114441 -179.965 6.48885 7.6294e-006 0.00426974 12.8175 -2.26862e-009 -1.64294e-009 7.08758 3.8147e-006 0.0042037 20.6816 -0.0261591 -0.0156373 4.0241 0.363559 -1.18281e-010 -5.33529 0.592242 3.37424 4.84412 -3.22853 -3.65581 -83.4563 -8.3 35.181 8.5161 -1.06582e-014 -3.8147e-006 36.5067 0.0334115 -20.1733 10.1924 3.55272e-015 -3.8147e-006 -28.3604 -0.922585 -24.6323 14.5949 -1.43856 0.585081 -50.4557 3.44201 12.7281 14.4623 -5.72206e-006 1.90735e-006 -1.4927 -1.32929 8.236 4.84412 -3.22855 3.65557 96.5355 -8.28134 -144.803 8.51611 0 3.8147e-006 -36.5067 -0.033397 -20.1733 10.1924 3.8147e-006 1.90735e-006 28.3604 0.922585 -24.6323 14.4623 -3.81471e-006 1.90735e-006 16.8602 -4.61009 11.6951 14.5949 1.43855 0.585079 36.5141 2.54349 9.24153 -3.76483 -0.77175 -3.67238 -84.8165 -3.27596 174.41 3.92616 -1.90735e-006 -9.53675e-007 -68.0807 -6.95696e-006 -1.59518e-005 6.1232 1.42109e-014 9.53675e-007 102.11 -3.28588e-006 -9.8224e-006 9.94774 7.62944e-006 5.32907e-015 -50.3076 5.27205 4.57933 0.881234 -0.110966 0.0158088 153.339 -4.56946 179.845 2.32138 3.81473e-006 -1.95399e-014 80.1011 0.0130613 0.0022784 1.63292 7.62951e-006 1.86517e-014 -85.7386 -1.24845e-007 8.59688e-006 1.7213 -1.42112e-014 0 5.30728e-007 -2.69166e-007 3.23005e-007 0.99469 0.967273 -1.09433 99.0362 2.76442 27.3525 2.202 7.6295e-006 -4.76837e-007 53.0888 -0.0384191 -0.0288555 1.84923 -3.81477e-006 -1.19209e-007 -34.5571 -0.0101021 0.0146383 1.70976 -4.26335e-014 -4.44089e-016 7.15767e-007 3.18013e-007 4.60125e-007 1.37479 1.34026 -0.0713077 109.958 -0.920944 -2.53001 2.26123 1.5259e-005 2.38419e-007 29.5252 -0.0165152 -0.0291272 2.22212 7.62951e-006 4.44089e-016 -37.6823 -0.00733467 0.00948964 1.61866 -1.42111e-014 -2.38419e-007 2.55437e-008 2.9589e-008 8.30071e-008 1.40697 0.68797 0.883714 100.76 -6.62855 -31.2676 2.26827 7.6295e-006 9.53674e-007 24.5772 1.44326e-005 -3.61424e-006 2.09769 3.81476e-006 -3.68594e-014 -59.7326 -7.41705e-006 3.66285e-006 1.53752 0 -9.53674e-007 -4.4712e-007 8.98731e-006 1.29545e-006 -4.16884 -0.700389 3.22284 -92.7686 8.41658 -175.169 3.92615 -7.62941e-006 -8.88178e-015 -71.6304 -4.97492e-006 -1.66618e-005 6.12318 -7.62942e-006 5.32907e-015 132.668 0.0016286 -0.00530001 9.94776 -2.70008e-012 -0.00107574 -19.0105 -7.00958 3.93037 0.881233 -0.110978 -0.0158851 109.7 3.21247 -176.754 2.32135 -4.76842e-007 -8.88179e-016 44.224 0.0390558 0.0287464 1.63293 -3.81475e-006 -4.76837e-007 -43.0923 0.00953459 0.00025319 1.72131 1.77639e-015 2.38419e-007 -179.962 0.0116023 0.00102069 0.99483 0.967336 1.09416 72.049 10.8611 -25.3786 2.20201 0.000686652 0.00056076 62.1271 -0.00972989 -0.0442329 1.84924 -0.000913633 -0.00102234 -34.9745 0.00129879 0.0227417 1.70977 1.90738e-006 -3.8147e-006 179.962 0.0116843 -0.00118985 1.37484 1.34023 0.0710765 77.0034 -0.612366 2.65207 2.26123 -3.81474e-006 0.000860929 48.4629 -0.0229366 -0.0203207 2.22213 1.36071e-012 0.000980377 -38.1595 -0.0235815 0.00813657 1.61866 -7.10555e-015 2.38419e-007 -179.962 -0.0101593 0.000269897 1.40692 0.68787 -0.883903 83.2972 -4.15054 31.6533 2.26827 -4.54752e-013 3.81469e-006 49.2781 -0.00714799 -0.00616406 2.0977 0 -1.42108e-014 -60.4414 -2.57014e-005 -1.51093e-005 1.53752 0 -7.10542e-015 -179.961 -0.00360147 -0.00574795 4.9071 -0.00428009 -2.38418e-007 8.89449 4.90576 -2.06329 5.56426 -1.28359 -9.53623e-007 -1.57219 -6.1908 7.91695 2.79364 -0.00202179 4.39648e-013 23.8917 -3.60224 -9.16468 2.79273 7.6294e-006 1.19209e-007 26.1498 -1.49677 0.530657 4.19087 0.0665894 -2.38425e-007 -127.396 -0.0349732 -179.983 6.95116 -1.42109e-014 -8.88178e-016 9.69497e-007 9.96127e-006 -4.30302e-009 
1.09712 84.601 -0.0139521 120.406 -90 -157.409 0 0 0 -89.9988 5.2011 -89.9989 -5.52397 -0.332268 -1.07553e-016 -34.8904 -0.0119781 -179.963 6.48885 7.6294e-006 0.00426974 11.9224 -2.31195e-009 -1.64735e-009 7.08758 3.8147e-006 0.0042037 19.5281 -0.0284691 -0.0235765 4.02708 0.328893 -2.83136e-010 -5.8269 0.578332 3.297 4.84412 -3.22853 -3.65581 -85.199 -7.8475 34.6414 8.5161 -1.06582e-014 -3.8147e-006 36.9133 0.211336 -19.8787 10.1924 1.42109e-014 -3.8147e-006 -23.1244 -4.26978 -28.9806 14.5949 -1.43856 0.585081 -50.1562 12.7613 -4.36671 14.4623 -5.72206e-006 1.90735e-006 0.24102 -4.00426 -13.911 4.84412 -3.22854 3.65557 94.7945 -7.83399 -145.345 8.51611 3.55272e-015 3.8147e-006 -36.9133 -0.211326 -19.8787 10.1924 3.8147e-006 1.90735e-006 23.1244 4.26979 -28.9806 14.4623 -3.81471e-006 1.90735e-006 38.1243 -13.1667 -4.82548 14.5949 1.43855 0.585079 14.6609 4.51547 -13.5734 -3.76827 -0.769814 -3.66904 -78.0529 -3.94724 175.377 3.92616 -1.90735e-006 -9.53675e-007 -60.0626 -9.19507e-006 -1.49446e-005 6.1232 -7.10545e-015 9.53675e-007 105.162 -4.04066e-006 -9.65685e-006 9.94775 7.62944e-006 7.99361e-015 -48.3693 5.623 2.92597 0.881234 -0.110966 0.0158088 153.617 -4.60191 179.859 2.32138 3.81473e-006 -4.52971e-014 76.5719 7.47345e-007 -4.45402e-007 1.63292 7.62951e-006 1.04805e-013 -80.5937 -8.00975e-006 1.04896e-005 1.7213 -7.1056e-015 -1.77636e-015 5.30728e-007 -2.69166e-007 3.23005e-007 0.99469 0.967273 -1.09433 94.2848 0.299304 27.4825 2.202 7.6295e-006 -4.76837e-007 46.1135 -3.28225e-006 2.80123e-007 1.84924 -3.81477e-006 -1.19209e-007 -32.5029 -1.86322e-005 1.19175e-006 1.70976 0 -1.77636e-015 7.15767e-007 3.18013e-007 4.60125e-007 1.37479 1.34026 -0.0713077 103.925 -0.647919 -2.61171 2.26123 1.5259e-005 2.38419e-007 24.9817 -1.37481e-005 9.19283e-006 2.22212 7.62951e-006 3.55271e-015 -35.4503 -3.04666e-006 -2.47819e-006 1.61866 1.42111e-014 -2.38419e-007 2.55437e-008 2.9589e-008 8.30071e-008 1.40697 0.68797 0.883714 95.8132 -3.60859 -31.7133 2.26827 7.6295e-006 9.53674e-007 20.2523 1.4943e-005 -3.71146e-006 2.09769 3.81475e-006 -9.94759e-014 -56.1814 -1.42333e-005 7.92142e-006 1.53752 -4.26335e-014 -9.53674e-007 -4.4712e-007 8.98731e-006 1.29545e-006 -4.16606 -0.700379 3.22643 -87.9981 8.80133 -176.219 3.92615 -7.62941e-006 -2.22045e-014 -66.5588 -6.35528e-006 -1.60346e-005 6.12319 -7.62942e-006 8.88178e-015 132.422 0.000478215 -0.00422093 9.94776 -5.28646e-012 -0.00107574 -19.9277 -6.46769 4.238 0.881233 -0.110978 -0.0158851 111.283 3.32189 -176.818 2.32135 -4.76842e-007 -1.77636e-015 43.5222 -0.0143671 -0.0266555 1.63293 -3.81475e-006 -4.76837e-007 -41.8625 -0.00257096 0.0135617 1.72131 3.55278e-015 2.38419e-007 -179.962 0.0116023 0.00102069 0.99483 0.967336 1.09416 70.6005 11.5317 -25.0971 2.20201 0.000686652 0.00056076 59.4132 -0.00296723 -0.0418913 1.84924 -0.000913633 -0.00102234 -33.9846 0.00291598 0.020899 1.70977 1.90738e-006 -3.8147e-006 179.962 0.0116843 -0.00118985 1.37484 1.34023 0.0710765 75.1541 -0.700762 2.63011 2.26123 -3.81474e-006 0.000860929 45.9045 -0.0373505 -0.0361912 2.22213 4.55819e-012 0.000980377 -37.0583 -0.0307571 0.0183028 1.61866 7.10555e-015 2.38419e-007 -179.962 -0.0101593 0.000269897 1.40692 0.68787 -0.883903 81.4467 -5.28628 31.5008 2.26827 -4.54752e-013 3.81469e-006 47.1837 8.51202e-006 -3.77716e-006 2.0977 3.55277e-015 1.42108e-014 -58.7017 -2.5931e-005 -1.39121e-005 1.53752 -3.55279e-014 -7.10542e-015 -179.961 -0.00360147 -0.00574795 4.9071 -0.00428009 -2.38418e-007 8.49307 4.77669 -2.00808 5.56426 -1.28359 -9.53574e-007 -1.2483 -5.80395 7.48519 2.79364 -0.00202179 1.23013e-012 23.1263 -3.3367 -8.62999 2.79273 7.6294e-006 1.19209e-007 24.3579 -1.57743 0.515781 4.19087 0.0665894 -2.38431e-007 -127.797 -0.0268402 -179.987 6.95116 -2.84217e-014 -4.44089e-016 9.69497e-007 9.96127e-006 -4.30302e-009 
